<mxfile host="app.diagrams.net" agent="Mozilla/5.0 (Macintosh; Intel Mac OS X 10_15_7) AppleWebKit/537.36 (KHTML, like Gecko) Chrome/131.0.0.0 Safari/537.36" version="26.0.11">
  <diagram name="第 1 页" id="ev64KXaAXKsNbBbckLUQ">
    <mxGraphModel dx="1464" dy="689" grid="1" gridSize="10" guides="1" tooltips="1" connect="1" arrows="1" fold="1" page="1" pageScale="1" pageWidth="827" pageHeight="1169" math="0" shadow="0">
      <root>
        <mxCell id="0" />
        <mxCell id="1" parent="0" />
        <mxCell id="uy1FSmQuzsHavTnsYRQ1-4" style="edgeStyle=orthogonalEdgeStyle;rounded=0;orthogonalLoop=1;jettySize=auto;html=1;entryX=0.5;entryY=0;entryDx=0;entryDy=0;" edge="1" parent="1" source="uy1FSmQuzsHavTnsYRQ1-1" target="uy1FSmQuzsHavTnsYRQ1-3">
          <mxGeometry relative="1" as="geometry">
            <mxPoint x="290" y="180" as="targetPoint" />
          </mxGeometry>
        </mxCell>
        <mxCell id="uy1FSmQuzsHavTnsYRQ1-1" value="导入拍照单" style="rounded=1;whiteSpace=wrap;html=1;fillColor=#ffe6cc;strokeColor=#d79b00;" vertex="1" parent="1">
          <mxGeometry x="220" y="70" width="120" height="40" as="geometry" />
        </mxCell>
        <mxCell id="uy1FSmQuzsHavTnsYRQ1-6" style="edgeStyle=orthogonalEdgeStyle;rounded=0;orthogonalLoop=1;jettySize=auto;html=1;entryX=1;entryY=0.5;entryDx=0;entryDy=0;" edge="1" parent="1" source="uy1FSmQuzsHavTnsYRQ1-3" target="uy1FSmQuzsHavTnsYRQ1-5">
          <mxGeometry relative="1" as="geometry" />
        </mxCell>
        <mxCell id="uy1FSmQuzsHavTnsYRQ1-16" style="edgeStyle=orthogonalEdgeStyle;rounded=0;orthogonalLoop=1;jettySize=auto;html=1;entryX=0.5;entryY=0;entryDx=0;entryDy=0;" edge="1" parent="1" source="uy1FSmQuzsHavTnsYRQ1-3" target="uy1FSmQuzsHavTnsYRQ1-8">
          <mxGeometry relative="1" as="geometry" />
        </mxCell>
        <mxCell id="uy1FSmQuzsHavTnsYRQ1-3" value="已存在明细？" style="rhombus;whiteSpace=wrap;html=1;" vertex="1" parent="1">
          <mxGeometry x="225" y="190" width="110" height="100" as="geometry" />
        </mxCell>
        <mxCell id="uy1FSmQuzsHavTnsYRQ1-10" style="edgeStyle=orthogonalEdgeStyle;rounded=0;orthogonalLoop=1;jettySize=auto;html=1;entryX=0;entryY=0.5;entryDx=0;entryDy=0;exitX=0.5;exitY=1;exitDx=0;exitDy=0;" edge="1" parent="1" source="uy1FSmQuzsHavTnsYRQ1-5" target="uy1FSmQuzsHavTnsYRQ1-8">
          <mxGeometry relative="1" as="geometry" />
        </mxCell>
        <mxCell id="uy1FSmQuzsHavTnsYRQ1-5" value="删除旧明细" style="rounded=0;whiteSpace=wrap;html=1;fillColor=#f8cecc;strokeColor=#b85450;" vertex="1" parent="1">
          <mxGeometry x="60" y="220" width="115" height="40" as="geometry" />
        </mxCell>
        <mxCell id="uy1FSmQuzsHavTnsYRQ1-7" value="标识为已删除" style="text;html=1;align=center;verticalAlign=middle;whiteSpace=wrap;rounded=0;" vertex="1" parent="1">
          <mxGeometry x="80" y="190" width="90" height="30" as="geometry" />
        </mxCell>
        <mxCell id="uy1FSmQuzsHavTnsYRQ1-11" style="edgeStyle=orthogonalEdgeStyle;rounded=0;orthogonalLoop=1;jettySize=auto;html=1;entryX=0.5;entryY=0;entryDx=0;entryDy=0;" edge="1" parent="1" source="uy1FSmQuzsHavTnsYRQ1-8" target="uy1FSmQuzsHavTnsYRQ1-9">
          <mxGeometry relative="1" as="geometry" />
        </mxCell>
        <mxCell id="uy1FSmQuzsHavTnsYRQ1-8" value="新数据生成版本号" style="rounded=0;whiteSpace=wrap;html=1;" vertex="1" parent="1">
          <mxGeometry x="222.5" y="340" width="115" height="40" as="geometry" />
        </mxCell>
        <mxCell id="uy1FSmQuzsHavTnsYRQ1-13" style="edgeStyle=orthogonalEdgeStyle;rounded=0;orthogonalLoop=1;jettySize=auto;html=1;entryX=0.5;entryY=0;entryDx=0;entryDy=0;" edge="1" parent="1" source="uy1FSmQuzsHavTnsYRQ1-9" target="uy1FSmQuzsHavTnsYRQ1-12">
          <mxGeometry relative="1" as="geometry" />
        </mxCell>
        <mxCell id="uy1FSmQuzsHavTnsYRQ1-15" style="edgeStyle=orthogonalEdgeStyle;rounded=0;orthogonalLoop=1;jettySize=auto;html=1;entryX=0;entryY=0.5;entryDx=0;entryDy=0;" edge="1" parent="1" source="uy1FSmQuzsHavTnsYRQ1-9" target="uy1FSmQuzsHavTnsYRQ1-14">
          <mxGeometry relative="1" as="geometry" />
        </mxCell>
        <mxCell id="uy1FSmQuzsHavTnsYRQ1-9" value="保存数据" style="rounded=0;whiteSpace=wrap;html=1;fillColor=#d5e8d4;strokeColor=#82b366;" vertex="1" parent="1">
          <mxGeometry x="222.5" y="440" width="115" height="40" as="geometry" />
        </mxCell>
        <mxCell id="uy1FSmQuzsHavTnsYRQ1-12" value="结束" style="rounded=1;whiteSpace=wrap;html=1;fillColor=#ffe6cc;strokeColor=#d79b00;" vertex="1" parent="1">
          <mxGeometry x="220" y="530" width="120" height="40" as="geometry" />
        </mxCell>
        <mxCell id="uy1FSmQuzsHavTnsYRQ1-14" value="下发wms" style="shape=process;whiteSpace=wrap;html=1;backgroundOutline=1;" vertex="1" parent="1">
          <mxGeometry x="570" y="430" width="120" height="60" as="geometry" />
        </mxCell>
        <mxCell id="uy1FSmQuzsHavTnsYRQ1-19" value="是" style="text;html=1;align=center;verticalAlign=middle;whiteSpace=wrap;rounded=0;" vertex="1" parent="1">
          <mxGeometry x="192" y="217" width="30" height="20" as="geometry" />
        </mxCell>
        <mxCell id="uy1FSmQuzsHavTnsYRQ1-20" value="否" style="text;html=1;align=center;verticalAlign=middle;whiteSpace=wrap;rounded=0;" vertex="1" parent="1">
          <mxGeometry x="250" y="290" width="30" height="20" as="geometry" />
        </mxCell>
        <mxCell id="uy1FSmQuzsHavTnsYRQ1-21" value="使用时间戳作为版本号，包含递增属性" style="text;html=1;align=center;verticalAlign=middle;whiteSpace=wrap;rounded=0;" vertex="1" parent="1">
          <mxGeometry x="294" y="300" width="120" height="30" as="geometry" />
        </mxCell>
        <mxCell id="uy1FSmQuzsHavTnsYRQ1-22" value="第一次导入则触发CREATE类型下发&lt;div&gt;后续更新则触发UPDATE类型下发&lt;/div&gt;" style="text;html=1;align=left;verticalAlign=middle;whiteSpace=wrap;rounded=0;" vertex="1" parent="1">
          <mxGeometry x="350" y="420" width="200" height="30" as="geometry" />
        </mxCell>
        <mxCell id="uy1FSmQuzsHavTnsYRQ1-35" style="edgeStyle=orthogonalEdgeStyle;rounded=0;orthogonalLoop=1;jettySize=auto;html=1;entryX=0.5;entryY=0;entryDx=0;entryDy=0;" edge="1" parent="1" source="uy1FSmQuzsHavTnsYRQ1-23" target="uy1FSmQuzsHavTnsYRQ1-29">
          <mxGeometry relative="1" as="geometry" />
        </mxCell>
        <mxCell id="uy1FSmQuzsHavTnsYRQ1-23" value="数据拉取" style="rounded=1;whiteSpace=wrap;html=1;fillColor=#ffe6cc;strokeColor=#d79b00;" vertex="1" parent="1">
          <mxGeometry x="320" y="700" width="120" height="40" as="geometry" />
        </mxCell>
        <mxCell id="uy1FSmQuzsHavTnsYRQ1-28" value="增值服务" style="rounded=1;whiteSpace=wrap;html=1;fillColor=#e1d5e7;strokeColor=#9673a6;" vertex="1" parent="1">
          <mxGeometry x="80" y="800" width="120" height="40" as="geometry" />
        </mxCell>
        <mxCell id="uy1FSmQuzsHavTnsYRQ1-32" style="edgeStyle=orthogonalEdgeStyle;rounded=0;orthogonalLoop=1;jettySize=auto;html=1;entryX=1;entryY=0.5;entryDx=0;entryDy=0;" edge="1" parent="1" source="uy1FSmQuzsHavTnsYRQ1-29" target="uy1FSmQuzsHavTnsYRQ1-28">
          <mxGeometry relative="1" as="geometry" />
        </mxCell>
        <mxCell id="uy1FSmQuzsHavTnsYRQ1-29" value="获取数据" style="rounded=0;whiteSpace=wrap;html=1;" vertex="1" parent="1">
          <mxGeometry x="323" y="800" width="115" height="40" as="geometry" />
        </mxCell>
        <mxCell id="uy1FSmQuzsHavTnsYRQ1-43" style="edgeStyle=orthogonalEdgeStyle;rounded=0;orthogonalLoop=1;jettySize=auto;html=1;entryX=1;entryY=0.5;entryDx=0;entryDy=0;" edge="1" parent="1" source="uy1FSmQuzsHavTnsYRQ1-33" target="uy1FSmQuzsHavTnsYRQ1-42">
          <mxGeometry relative="1" as="geometry" />
        </mxCell>
        <mxCell id="uy1FSmQuzsHavTnsYRQ1-36" value="入参：&lt;div&gt;增值单号、&lt;/div&gt;&lt;div&gt;需求类型、&lt;div&gt;version（第一次拉取时传空）&lt;/div&gt;&lt;/div&gt;" style="text;html=1;align=left;verticalAlign=middle;whiteSpace=wrap;rounded=0;" vertex="1" parent="1">
          <mxGeometry x="210" y="753" width="120" height="67" as="geometry" />
        </mxCell>
        <mxCell id="uy1FSmQuzsHavTnsYRQ1-40" value="返回数据" style="text;html=1;align=left;verticalAlign=middle;whiteSpace=wrap;rounded=0;" vertex="1" parent="1">
          <mxGeometry x="230" y="850" width="70" height="30" as="geometry" />
        </mxCell>
        <mxCell id="uy1FSmQuzsHavTnsYRQ1-45" style="edgeStyle=orthogonalEdgeStyle;rounded=0;orthogonalLoop=1;jettySize=auto;html=1;entryX=0;entryY=0.5;entryDx=0;entryDy=0;exitX=0.5;exitY=1;exitDx=0;exitDy=0;" edge="1" parent="1" source="uy1FSmQuzsHavTnsYRQ1-42" target="uy1FSmQuzsHavTnsYRQ1-44">
          <mxGeometry relative="1" as="geometry" />
        </mxCell>
        <mxCell id="uy1FSmQuzsHavTnsYRQ1-42" value="删除旧数据（如果已有）" style="rounded=0;whiteSpace=wrap;html=1;" vertex="1" parent="1">
          <mxGeometry x="115" y="960" width="115" height="40" as="geometry" />
        </mxCell>
        <mxCell id="uy1FSmQuzsHavTnsYRQ1-44" value="结束" style="rounded=1;whiteSpace=wrap;html=1;fillColor=#ffe6cc;strokeColor=#d79b00;" vertex="1" parent="1">
          <mxGeometry x="320" y="1320" width="120" height="40" as="geometry" />
        </mxCell>
        <mxCell id="uy1FSmQuzsHavTnsYRQ1-46" value="终止拉取数据" style="text;html=1;align=left;verticalAlign=middle;whiteSpace=wrap;rounded=0;" vertex="1" parent="1">
          <mxGeometry x="180" y="1200" width="80" height="30" as="geometry" />
        </mxCell>
        <mxCell id="uy1FSmQuzsHavTnsYRQ1-50" style="edgeStyle=orthogonalEdgeStyle;rounded=0;orthogonalLoop=1;jettySize=auto;html=1;entryX=0.5;entryY=0;entryDx=0;entryDy=0;" edge="1" parent="1" source="uy1FSmQuzsHavTnsYRQ1-48" target="uy1FSmQuzsHavTnsYRQ1-44">
          <mxGeometry relative="1" as="geometry" />
        </mxCell>
        <mxCell id="uy1FSmQuzsHavTnsYRQ1-56" style="edgeStyle=orthogonalEdgeStyle;rounded=0;orthogonalLoop=1;jettySize=auto;html=1;entryX=1;entryY=0.5;entryDx=0;entryDy=0;exitX=1;exitY=0.5;exitDx=0;exitDy=0;" edge="1" parent="1" source="uy1FSmQuzsHavTnsYRQ1-48" target="uy1FSmQuzsHavTnsYRQ1-29">
          <mxGeometry relative="1" as="geometry">
            <mxPoint x="570" y="990" as="targetPoint" />
            <Array as="points">
              <mxPoint x="530" y="1230" />
              <mxPoint x="530" y="820" />
            </Array>
          </mxGeometry>
        </mxCell>
        <mxCell id="uy1FSmQuzsHavTnsYRQ1-48" value="拉取数量 &amp;lt; total ?" style="rhombus;whiteSpace=wrap;html=1;" vertex="1" parent="1">
          <mxGeometry x="325" y="1180" width="110" height="100" as="geometry" />
        </mxCell>
        <mxCell id="uy1FSmQuzsHavTnsYRQ1-52" value="" style="edgeStyle=orthogonalEdgeStyle;rounded=0;orthogonalLoop=1;jettySize=auto;html=1;exitX=0.5;exitY=1;exitDx=0;exitDy=0;" edge="1" parent="1" source="uy1FSmQuzsHavTnsYRQ1-28" target="uy1FSmQuzsHavTnsYRQ1-33">
          <mxGeometry relative="1" as="geometry">
            <mxPoint x="140" y="840" as="sourcePoint" />
            <mxPoint x="380" y="980" as="targetPoint" />
          </mxGeometry>
        </mxCell>
        <mxCell id="uy1FSmQuzsHavTnsYRQ1-54" style="edgeStyle=orthogonalEdgeStyle;rounded=0;orthogonalLoop=1;jettySize=auto;html=1;entryX=0.5;entryY=0;entryDx=0;entryDy=0;" edge="1" parent="1" source="uy1FSmQuzsHavTnsYRQ1-33" target="uy1FSmQuzsHavTnsYRQ1-53">
          <mxGeometry relative="1" as="geometry" />
        </mxCell>
        <mxCell id="uy1FSmQuzsHavTnsYRQ1-33" value="isInvalid == 1?" style="rhombus;whiteSpace=wrap;html=1;" vertex="1" parent="1">
          <mxGeometry x="325" y="930" width="110" height="100" as="geometry" />
        </mxCell>
        <mxCell id="uy1FSmQuzsHavTnsYRQ1-55" style="edgeStyle=orthogonalEdgeStyle;rounded=0;orthogonalLoop=1;jettySize=auto;html=1;entryX=0.5;entryY=0;entryDx=0;entryDy=0;" edge="1" parent="1" source="uy1FSmQuzsHavTnsYRQ1-53" target="uy1FSmQuzsHavTnsYRQ1-48">
          <mxGeometry relative="1" as="geometry" />
        </mxCell>
        <mxCell id="uy1FSmQuzsHavTnsYRQ1-53" value="结果数据处理" style="rounded=0;whiteSpace=wrap;html=1;" vertex="1" parent="1">
          <mxGeometry x="322.5" y="1080" width="115" height="40" as="geometry" />
        </mxCell>
        <mxCell id="uy1FSmQuzsHavTnsYRQ1-57" value="带上 上一次拉取数据返回的version&lt;div&gt;拉取下一页数据&lt;/div&gt;" style="text;html=1;align=left;verticalAlign=middle;whiteSpace=wrap;rounded=0;" vertex="1" parent="1">
          <mxGeometry x="530" y="940" width="190" height="30" as="geometry" />
        </mxCell>
        <mxCell id="uy1FSmQuzsHavTnsYRQ1-58" value="否" style="text;html=1;align=center;verticalAlign=middle;whiteSpace=wrap;rounded=0;" vertex="1" parent="1">
          <mxGeometry x="380" y="1030" width="30" height="20" as="geometry" />
        </mxCell>
        <mxCell id="uy1FSmQuzsHavTnsYRQ1-59" value="否" style="text;html=1;align=center;verticalAlign=middle;whiteSpace=wrap;rounded=0;" vertex="1" parent="1">
          <mxGeometry x="346" y="1280" width="30" height="20" as="geometry" />
        </mxCell>
        <mxCell id="uy1FSmQuzsHavTnsYRQ1-60" value="是" style="text;html=1;align=center;verticalAlign=middle;whiteSpace=wrap;rounded=0;" vertex="1" parent="1">
          <mxGeometry x="260" y="960" width="30" height="20" as="geometry" />
        </mxCell>
        <mxCell id="uy1FSmQuzsHavTnsYRQ1-61" value="是" style="text;html=1;align=center;verticalAlign=middle;whiteSpace=wrap;rounded=0;" vertex="1" parent="1">
          <mxGeometry x="460" y="1205" width="30" height="20" as="geometry" />
        </mxCell>
        <mxCell id="uy1FSmQuzsHavTnsYRQ1-62" value="&lt;font style=&quot;font-size: 18px;&quot;&gt;增值更新清单明细流程&lt;/font&gt;" style="text;html=1;align=left;verticalAlign=middle;whiteSpace=wrap;rounded=0;" vertex="1" parent="1">
          <mxGeometry x="20" y="20" width="185" height="30" as="geometry" />
        </mxCell>
        <mxCell id="uy1FSmQuzsHavTnsYRQ1-63" value="&lt;font style=&quot;font-size: 18px;&quot;&gt;数据拉取流程&lt;/font&gt;" style="text;html=1;align=left;verticalAlign=middle;whiteSpace=wrap;rounded=0;" vertex="1" parent="1">
          <mxGeometry x="25" y="640" width="150" height="30" as="geometry" />
        </mxCell>
        <mxCell id="uy1FSmQuzsHavTnsYRQ1-64" value="拉取数据时，&lt;div&gt;1、第一次拉取传增值单号、及需求类型即可，version为空，返回数据时会返回当前时刻最新的version的数据&lt;/div&gt;&lt;div&gt;2、返回数据后调用方根据isInvalid字段判断当前数据是否有效，若无效则终止拉取数据，若有效则继续拉取，如果存在未拉取完的数据则带上返回的version字段，继续查询数据&lt;/div&gt;" style="text;html=1;align=left;verticalAlign=middle;whiteSpace=wrap;rounded=0;" vertex="1" parent="1">
          <mxGeometry x="550" y="660" width="250" height="140" as="geometry" />
        </mxCell>
      </root>
    </mxGraphModel>
  </diagram>
</mxfile>
